<svg xmlns="http://www.w3.org/2000/svg" xmlns:xlink="http://www.w3.org/1999/xlink" width="805" zoomAndPan="magnify" viewBox="0 0 603.75 228.749995" height="305" preserveAspectRatio="xMidYMid meet" version="1.0"><defs><g/><clipPath id="6f621ccf3b"><path d="M 4.640625 0 L 84.050781 0 L 84.050781 50.082031 L 4.640625 50.082031 Z M 4.640625 0 " clip-rule="nonzero"/></clipPath><clipPath id="21a2e38fd9"><path d="M 492.105469 99.128906 L 597.90625 99.128906 L 597.90625 142.171875 L 492.105469 142.171875 Z M 492.105469 99.128906 " clip-rule="nonzero"/></clipPath><clipPath id="30f3766bfe"><path d="M 492.105469 56.085938 L 597.90625 56.085938 L 597.90625 99.128906 L 492.105469 99.128906 Z M 492.105469 56.085938 " clip-rule="nonzero"/></clipPath><clipPath id="b73af3dc62"><path d="M 48.429688 99.128906 L 132.253906 99.128906 L 132.253906 228.382812 L 48.429688 228.382812 Z M 48.429688 99.128906 " clip-rule="nonzero"/></clipPath><clipPath id="01e8020e1c"><path d="M 157.589844 99.128906 L 241.414062 99.128906 L 241.414062 228.382812 L 157.589844 228.382812 Z M 157.589844 99.128906 " clip-rule="nonzero"/></clipPath><clipPath id="bb3c997877"><path d="M 251.160156 142.171875 L 370.832031 142.171875 L 370.832031 228.382812 L 251.160156 228.382812 Z M 251.160156 142.171875 " clip-rule="nonzero"/></clipPath><clipPath id="3892acb217"><path d="M 413.167969 142.171875 L 597.90625 142.171875 L 597.90625 228.382812 L 413.167969 228.382812 Z M 413.167969 142.171875 " clip-rule="nonzero"/></clipPath></defs><g clip-path="url(#6f621ccf3b)"><path fill="#0097b2" d="M 4.640625 0 L 84.070312 0 L 84.070312 50.082031 L 4.640625 50.082031 Z M 4.640625 0 " fill-opacity="1" fill-rule="nonzero"/></g><g fill="#ffffff" fill-opacity="1"><g transform="translate(13.113226, 29.823353)"><g><path d="M 6.5 -7.390625 C 6.445312 -7.828125 6.25 -8.164062 5.90625 -8.40625 C 5.5625 -8.65625 5.113281 -8.78125 4.5625 -8.78125 C 4.1875 -8.78125 3.859375 -8.722656 3.578125 -8.609375 C 3.296875 -8.492188 3.078125 -8.332031 2.921875 -8.125 C 2.773438 -7.925781 2.703125 -7.703125 2.703125 -7.453125 C 2.703125 -7.054688 2.863281 -6.75 3.1875 -6.53125 C 3.507812 -6.320312 3.929688 -6.160156 4.453125 -6.046875 L 5.40625 -5.78125 C 6.28125 -5.582031 6.992188 -5.25 7.546875 -4.78125 C 8.109375 -4.3125 8.390625 -3.671875 8.390625 -2.859375 C 8.390625 -2.265625 8.238281 -1.738281 7.9375 -1.28125 C 7.632812 -0.820312 7.191406 -0.46875 6.609375 -0.21875 C 6.023438 0.03125 5.332031 0.15625 4.53125 0.15625 C 3.738281 0.15625 3.050781 0.0351562 2.46875 -0.203125 C 1.882812 -0.453125 1.429688 -0.8125 1.109375 -1.28125 C 0.785156 -1.757812 0.609375 -2.332031 0.578125 -3 L 2.375 -3 C 2.414062 -2.476562 2.632812 -2.082031 3.03125 -1.8125 C 3.425781 -1.539062 3.921875 -1.40625 4.515625 -1.40625 C 4.921875 -1.40625 5.273438 -1.46875 5.578125 -1.59375 C 5.890625 -1.71875 6.128906 -1.890625 6.296875 -2.109375 C 6.472656 -2.328125 6.5625 -2.582031 6.5625 -2.875 C 6.5625 -3.238281 6.40625 -3.523438 6.09375 -3.734375 C 5.789062 -3.953125 5.332031 -4.140625 4.71875 -4.296875 L 3.5625 -4.59375 C 1.75 -5.0625 0.84375 -5.976562 0.84375 -7.34375 C 0.84375 -7.925781 1.003906 -8.441406 1.328125 -8.890625 C 1.648438 -9.347656 2.097656 -9.703125 2.671875 -9.953125 C 3.242188 -10.210938 3.882812 -10.34375 4.59375 -10.34375 C 5.300781 -10.34375 5.929688 -10.210938 6.484375 -9.953125 C 7.035156 -9.703125 7.460938 -9.351562 7.765625 -8.90625 C 8.078125 -8.46875 8.238281 -7.960938 8.25 -7.390625 Z M 6.5 -7.390625 "/></g></g><g transform="translate(22.085108, 29.823353)"><g><path d="M 4.671875 -6.265625 L 3.171875 -6.265625 L 3.171875 -2.296875 C 3.171875 -1.953125 3.238281 -1.71875 3.375 -1.59375 C 3.519531 -1.46875 3.722656 -1.40625 3.984375 -1.40625 C 4.210938 -1.40625 4.476562 -1.414062 4.78125 -1.4375 L 4.78125 0.03125 C 4.539062 0.0703125 4.203125 0.09375 3.765625 0.09375 C 3.296875 0.09375 2.878906 0.0195312 2.515625 -0.125 C 2.160156 -0.28125 1.878906 -0.515625 1.671875 -0.828125 C 1.472656 -1.140625 1.375 -1.53125 1.375 -2 L 1.375 -6.265625 L 0.28125 -6.265625 L 0.28125 -7.640625 L 1.375 -7.640625 L 1.375 -9.484375 L 3.171875 -9.484375 L 3.171875 -7.640625 L 4.671875 -7.640625 Z M 4.671875 -6.265625 "/></g></g><g transform="translate(27.282321, 29.823353)"><g><path d="M 5.75 -7.640625 L 7.53125 -7.640625 L 7.53125 0 L 5.796875 0 L 5.796875 -1.359375 L 5.71875 -1.359375 C 5.53125 -0.910156 5.238281 -0.554688 4.84375 -0.296875 C 4.445312 -0.0351562 3.972656 0.09375 3.421875 0.09375 C 2.921875 0.09375 2.476562 -0.015625 2.09375 -0.234375 C 1.707031 -0.460938 1.40625 -0.789062 1.1875 -1.21875 C 0.96875 -1.65625 0.859375 -2.175781 0.859375 -2.78125 L 0.859375 -7.640625 L 2.65625 -7.640625 L 2.65625 -3.0625 C 2.65625 -2.738281 2.710938 -2.457031 2.828125 -2.21875 C 2.953125 -1.976562 3.125 -1.789062 3.34375 -1.65625 C 3.5625 -1.53125 3.816406 -1.46875 4.109375 -1.46875 C 4.378906 -1.46875 4.640625 -1.53125 4.890625 -1.65625 C 5.148438 -1.789062 5.359375 -1.988281 5.515625 -2.25 C 5.671875 -2.519531 5.75 -2.84375 5.75 -3.21875 Z M 5.75 -7.640625 "/></g></g><g transform="translate(35.676735, 29.823353)"><g><path d="M 3.703125 0.140625 C 3.097656 0.140625 2.554688 -0.015625 2.078125 -0.328125 C 1.597656 -0.640625 1.222656 -1.09375 0.953125 -1.6875 C 0.679688 -2.28125 0.546875 -2.988281 0.546875 -3.8125 C 0.546875 -4.644531 0.679688 -5.351562 0.953125 -5.9375 C 1.234375 -6.53125 1.613281 -6.976562 2.09375 -7.28125 C 2.570312 -7.59375 3.113281 -7.75 3.71875 -7.75 C 4.726562 -7.75 5.457031 -7.296875 5.90625 -6.390625 L 5.96875 -6.390625 L 5.96875 -10.203125 L 7.765625 -10.203125 L 7.765625 0 L 6 0 L 6 -1.21875 L 5.90625 -1.21875 C 5.445312 -0.3125 4.710938 0.140625 3.703125 0.140625 Z M 4.203125 -1.34375 C 4.578125 -1.34375 4.898438 -1.441406 5.171875 -1.640625 C 5.441406 -1.847656 5.648438 -2.140625 5.796875 -2.515625 C 5.941406 -2.890625 6.015625 -3.328125 6.015625 -3.828125 C 6.015625 -4.316406 5.941406 -4.742188 5.796875 -5.109375 C 5.660156 -5.484375 5.457031 -5.769531 5.1875 -5.96875 C 4.914062 -6.175781 4.585938 -6.28125 4.203125 -6.28125 C 3.804688 -6.28125 3.472656 -6.175781 3.203125 -5.96875 C 2.929688 -5.757812 2.722656 -5.46875 2.578125 -5.09375 C 2.441406 -4.726562 2.375 -4.304688 2.375 -3.828125 C 2.375 -3.335938 2.441406 -2.90625 2.578125 -2.53125 C 2.722656 -2.15625 2.929688 -1.863281 3.203125 -1.65625 C 3.484375 -1.445312 3.816406 -1.34375 4.203125 -1.34375 Z M 4.203125 -1.34375 "/></g></g><g transform="translate(44.395095, 29.823353)"><g><path d="M 0.859375 -7.640625 L 2.65625 -7.640625 L 2.65625 0 L 0.859375 0 Z M 1.765625 -8.734375 C 1.585938 -8.734375 1.414062 -8.773438 1.25 -8.859375 C 1.082031 -8.953125 0.953125 -9.070312 0.859375 -9.21875 C 0.765625 -9.375 0.71875 -9.539062 0.71875 -9.71875 C 0.71875 -9.894531 0.765625 -10.054688 0.859375 -10.203125 C 0.953125 -10.347656 1.082031 -10.460938 1.25 -10.546875 C 1.414062 -10.640625 1.585938 -10.6875 1.765625 -10.6875 C 1.953125 -10.6875 2.125 -10.640625 2.28125 -10.546875 C 2.445312 -10.460938 2.578125 -10.347656 2.671875 -10.203125 C 2.765625 -10.054688 2.8125 -9.894531 2.8125 -9.71875 C 2.8125 -9.539062 2.765625 -9.375 2.671875 -9.21875 C 2.578125 -9.070312 2.445312 -8.953125 2.28125 -8.859375 C 2.125 -8.773438 1.953125 -8.734375 1.765625 -8.734375 Z M 1.765625 -8.734375 "/></g></g><g transform="translate(47.916242, 29.823353)"><g><path d="M 4.203125 0.15625 C 3.460938 0.15625 2.816406 -0.00390625 2.265625 -0.328125 C 1.710938 -0.660156 1.285156 -1.125 0.984375 -1.71875 C 0.679688 -2.3125 0.53125 -3 0.53125 -3.78125 C 0.53125 -4.570312 0.679688 -5.265625 0.984375 -5.859375 C 1.285156 -6.460938 1.710938 -6.925781 2.265625 -7.25 C 2.816406 -7.582031 3.460938 -7.75 4.203125 -7.75 C 4.929688 -7.75 5.570312 -7.582031 6.125 -7.25 C 6.6875 -6.925781 7.113281 -6.460938 7.40625 -5.859375 C 7.707031 -5.265625 7.859375 -4.570312 7.859375 -3.78125 C 7.859375 -3 7.707031 -2.3125 7.40625 -1.71875 C 7.101562 -1.125 6.675781 -0.660156 6.125 -0.328125 C 5.570312 -0.00390625 4.929688 0.15625 4.203125 0.15625 Z M 4.21875 -1.28125 C 4.601562 -1.28125 4.929688 -1.390625 5.203125 -1.609375 C 5.484375 -1.828125 5.691406 -2.125 5.828125 -2.5 C 5.972656 -2.882812 6.046875 -3.316406 6.046875 -3.796875 C 6.046875 -4.273438 5.972656 -4.703125 5.828125 -5.078125 C 5.691406 -5.460938 5.484375 -5.765625 5.203125 -5.984375 C 4.929688 -6.210938 4.601562 -6.328125 4.21875 -6.328125 C 3.8125 -6.328125 3.46875 -6.210938 3.1875 -5.984375 C 2.90625 -5.765625 2.695312 -5.460938 2.5625 -5.078125 C 2.425781 -4.703125 2.359375 -4.273438 2.359375 -3.796875 C 2.359375 -3.316406 2.425781 -2.882812 2.5625 -2.5 C 2.695312 -2.125 2.90625 -1.828125 3.1875 -1.609375 C 3.46875 -1.390625 3.8125 -1.28125 4.21875 -1.28125 Z M 4.21875 -1.28125 "/></g></g><g transform="translate(56.310657, 29.823353)"><g/></g><g transform="translate(59.733211, 29.823353)"><g><path d="M 4.984375 0 L 3.140625 0 L 3.140625 -8.40625 L 3.078125 -8.40625 L 0.703125 -6.890625 L 0.703125 -8.5625 L 3.21875 -10.203125 L 4.984375 -10.203125 Z M 4.984375 0 "/></g></g><g transform="translate(66.352968, 29.823353)"><g><path d="M 4.609375 0.140625 C 3.785156 0.140625 3.082031 -0.0625 2.5 -0.46875 C 1.914062 -0.882812 1.46875 -1.484375 1.15625 -2.265625 C 0.84375 -3.046875 0.6875 -3.988281 0.6875 -5.09375 C 0.6875 -6.195312 0.84375 -7.140625 1.15625 -7.921875 C 1.46875 -8.710938 1.914062 -9.3125 2.5 -9.71875 C 3.09375 -10.132812 3.796875 -10.34375 4.609375 -10.34375 C 5.410156 -10.34375 6.101562 -10.132812 6.6875 -9.71875 C 7.28125 -9.3125 7.734375 -8.710938 8.046875 -7.921875 C 8.359375 -7.140625 8.515625 -6.195312 8.515625 -5.09375 C 8.515625 -3.988281 8.359375 -3.046875 8.046875 -2.265625 C 7.734375 -1.484375 7.285156 -0.882812 6.703125 -0.46875 C 6.117188 -0.0625 5.421875 0.140625 4.609375 0.140625 Z M 4.609375 -1.390625 C 5.035156 -1.390625 5.398438 -1.53125 5.703125 -1.8125 C 6.015625 -2.09375 6.253906 -2.507812 6.421875 -3.0625 C 6.585938 -3.613281 6.671875 -4.289062 6.671875 -5.09375 C 6.671875 -5.894531 6.585938 -6.570312 6.421875 -7.125 C 6.253906 -7.6875 6.015625 -8.109375 5.703125 -8.390625 C 5.398438 -8.671875 5.035156 -8.8125 4.609375 -8.8125 C 4.179688 -8.8125 3.8125 -8.671875 3.5 -8.390625 C 3.1875 -8.109375 2.945312 -7.6875 2.78125 -7.125 C 2.613281 -6.570312 2.53125 -5.894531 2.53125 -5.09375 C 2.53125 -4.289062 2.613281 -3.613281 2.78125 -3.0625 C 2.945312 -2.507812 3.179688 -2.09375 3.484375 -1.8125 C 3.796875 -1.53125 4.171875 -1.390625 4.609375 -1.390625 Z M 4.609375 -1.390625 "/></g></g></g><g clip-path="url(#21a2e38fd9)"><path fill="#efbc9b" d="M 492.105469 99.128906 L 597.863281 99.128906 L 597.863281 142.171875 L 492.105469 142.171875 Z M 492.105469 99.128906 " fill-opacity="1" fill-rule="nonzero"/></g><g fill="#ffffff" fill-opacity="1"><g transform="translate(511.689627, 126.780774)"><g><path d="M 7.796875 -8.875 C 7.742188 -9.394531 7.507812 -9.800781 7.09375 -10.09375 C 6.675781 -10.382812 6.140625 -10.53125 5.484375 -10.53125 C 5.023438 -10.53125 4.625 -10.460938 4.28125 -10.328125 C 3.945312 -10.191406 3.691406 -10.003906 3.515625 -9.765625 C 3.335938 -9.523438 3.25 -9.25 3.25 -8.9375 C 3.25 -8.46875 3.441406 -8.101562 3.828125 -7.84375 C 4.210938 -7.59375 4.71875 -7.394531 5.34375 -7.25 L 6.5 -6.953125 C 7.550781 -6.703125 8.410156 -6.296875 9.078125 -5.734375 C 9.742188 -5.179688 10.078125 -4.414062 10.078125 -3.4375 C 10.078125 -2.71875 9.894531 -2.082031 9.53125 -1.53125 C 9.164062 -0.988281 8.632812 -0.566406 7.9375 -0.265625 C 7.238281 0.0351562 6.40625 0.1875 5.4375 0.1875 C 4.488281 0.1875 3.664062 0.0390625 2.96875 -0.25 C 2.269531 -0.550781 1.722656 -0.984375 1.328125 -1.546875 C 0.941406 -2.117188 0.726562 -2.800781 0.6875 -3.59375 L 2.859375 -3.59375 C 2.910156 -2.976562 3.171875 -2.503906 3.640625 -2.171875 C 4.109375 -1.847656 4.703125 -1.6875 5.421875 -1.6875 C 5.898438 -1.6875 6.328125 -1.757812 6.703125 -1.90625 C 7.078125 -2.050781 7.363281 -2.257812 7.5625 -2.53125 C 7.769531 -2.800781 7.875 -3.109375 7.875 -3.453125 C 7.875 -3.890625 7.6875 -4.234375 7.3125 -4.484375 C 6.945312 -4.742188 6.394531 -4.96875 5.65625 -5.15625 L 4.28125 -5.515625 C 2.101562 -6.078125 1.015625 -7.175781 1.015625 -8.8125 C 1.015625 -9.519531 1.207031 -10.144531 1.59375 -10.6875 C 1.988281 -11.226562 2.523438 -11.648438 3.203125 -11.953125 C 3.890625 -12.253906 4.660156 -12.40625 5.515625 -12.40625 C 6.367188 -12.40625 7.125 -12.253906 7.78125 -11.953125 C 8.445312 -11.648438 8.960938 -11.234375 9.328125 -10.703125 C 9.703125 -10.171875 9.894531 -9.5625 9.90625 -8.875 Z M 7.796875 -8.875 "/></g></g><g transform="translate(522.455886, 126.780774)"><g><path d="M 5.609375 -7.53125 L 3.796875 -7.53125 L 3.796875 -2.75 C 3.796875 -2.34375 3.878906 -2.0625 4.046875 -1.90625 C 4.222656 -1.757812 4.46875 -1.6875 4.78125 -1.6875 C 5.050781 -1.6875 5.367188 -1.695312 5.734375 -1.71875 L 5.734375 0.03125 C 5.453125 0.09375 5.046875 0.125 4.515625 0.125 C 3.953125 0.125 3.457031 0.03125 3.03125 -0.15625 C 2.601562 -0.34375 2.265625 -0.625 2.015625 -1 C 1.765625 -1.375 1.644531 -1.84375 1.65625 -2.40625 L 1.65625 -7.53125 L 0.34375 -7.53125 L 0.34375 -9.1875 L 1.65625 -9.1875 L 1.65625 -11.375 L 3.796875 -11.375 L 3.796875 -9.1875 L 5.609375 -9.1875 Z M 5.609375 -7.53125 "/></g></g><g transform="translate(528.692541, 126.780774)"><g><path d="M 6.890625 -9.1875 L 9.046875 -9.1875 L 9.046875 0 L 6.96875 0 L 6.96875 -1.625 L 6.859375 -1.625 C 6.640625 -1.09375 6.289062 -0.664062 5.8125 -0.34375 C 5.34375 -0.03125 4.773438 0.125 4.109375 0.125 C 3.503906 0.125 2.96875 -0.0078125 2.5 -0.28125 C 2.039062 -0.550781 1.679688 -0.945312 1.421875 -1.46875 C 1.171875 -1.988281 1.039062 -2.609375 1.03125 -3.328125 L 1.03125 -9.1875 L 3.203125 -9.1875 L 3.203125 -3.671875 C 3.203125 -3.285156 3.269531 -2.945312 3.40625 -2.65625 C 3.550781 -2.363281 3.753906 -2.140625 4.015625 -1.984375 C 4.273438 -1.835938 4.582031 -1.765625 4.9375 -1.765625 C 5.257812 -1.765625 5.570312 -1.84375 5.875 -2 C 6.175781 -2.15625 6.421875 -2.390625 6.609375 -2.703125 C 6.796875 -3.023438 6.890625 -3.410156 6.890625 -3.859375 Z M 6.890625 -9.1875 "/></g></g><g transform="translate(538.765839, 126.780774)"><g><path d="M 4.453125 0.171875 C 3.722656 0.171875 3.070312 -0.015625 2.5 -0.390625 C 1.925781 -0.765625 1.472656 -1.3125 1.140625 -2.03125 C 0.816406 -2.75 0.65625 -3.597656 0.65625 -4.578125 C 0.65625 -5.566406 0.820312 -6.414062 1.15625 -7.125 C 1.488281 -7.84375 1.941406 -8.382812 2.515625 -8.75 C 3.085938 -9.113281 3.738281 -9.296875 4.46875 -9.296875 C 5.6875 -9.296875 6.554688 -8.753906 7.078125 -7.671875 L 7.171875 -7.671875 L 7.171875 -12.234375 L 9.3125 -12.234375 L 9.3125 0 L 7.203125 0 L 7.203125 -1.453125 L 7.078125 -1.453125 C 6.535156 -0.367188 5.660156 0.171875 4.453125 0.171875 Z M 5.03125 -1.609375 C 5.488281 -1.609375 5.878906 -1.726562 6.203125 -1.96875 C 6.535156 -2.21875 6.785156 -2.566406 6.953125 -3.015625 C 7.128906 -3.472656 7.21875 -4 7.21875 -4.59375 C 7.21875 -5.1875 7.132812 -5.703125 6.96875 -6.140625 C 6.800781 -6.585938 6.550781 -6.929688 6.21875 -7.171875 C 5.894531 -7.421875 5.5 -7.546875 5.03125 -7.546875 C 4.570312 -7.546875 4.175781 -7.421875 3.84375 -7.171875 C 3.519531 -6.921875 3.273438 -6.570312 3.109375 -6.125 C 2.941406 -5.675781 2.859375 -5.164062 2.859375 -4.59375 C 2.859375 -4.007812 2.941406 -3.488281 3.109375 -3.03125 C 3.273438 -2.582031 3.519531 -2.234375 3.84375 -1.984375 C 4.175781 -1.734375 4.570312 -1.609375 5.03125 -1.609375 Z M 5.03125 -1.609375 "/></g></g><g transform="translate(549.22787, 126.780774)"><g><path d="M 1.03125 -9.1875 L 3.203125 -9.1875 L 3.203125 0 L 1.03125 0 Z M 2.140625 -10.484375 C 1.921875 -10.484375 1.710938 -10.535156 1.515625 -10.640625 C 1.316406 -10.742188 1.160156 -10.882812 1.046875 -11.0625 C 0.941406 -11.25 0.890625 -11.453125 0.890625 -11.671875 C 0.890625 -11.878906 0.941406 -12.070312 1.046875 -12.25 C 1.160156 -12.425781 1.316406 -12.566406 1.515625 -12.671875 C 1.710938 -12.773438 1.921875 -12.828125 2.140625 -12.828125 C 2.359375 -12.828125 2.5625 -12.773438 2.75 -12.671875 C 2.945312 -12.566406 3.101562 -12.425781 3.21875 -12.25 C 3.332031 -12.070312 3.390625 -11.878906 3.390625 -11.671875 C 3.390625 -11.453125 3.332031 -11.25 3.21875 -11.0625 C 3.101562 -10.882812 2.945312 -10.742188 2.75 -10.640625 C 2.5625 -10.535156 2.359375 -10.484375 2.140625 -10.484375 Z M 2.140625 -10.484375 "/></g></g><g transform="translate(553.453247, 126.780774)"><g><path d="M 5.03125 0.1875 C 4.15625 0.1875 3.382812 -0.0078125 2.71875 -0.40625 C 2.050781 -0.800781 1.535156 -1.351562 1.171875 -2.0625 C 0.816406 -2.78125 0.640625 -3.609375 0.640625 -4.546875 C 0.640625 -5.492188 0.816406 -6.320312 1.171875 -7.03125 C 1.535156 -7.75 2.050781 -8.304688 2.71875 -8.703125 C 3.382812 -9.097656 4.15625 -9.296875 5.03125 -9.296875 C 5.914062 -9.296875 6.691406 -9.097656 7.359375 -8.703125 C 8.023438 -8.304688 8.535156 -7.75 8.890625 -7.03125 C 9.253906 -6.320312 9.4375 -5.492188 9.4375 -4.546875 C 9.4375 -3.609375 9.253906 -2.78125 8.890625 -2.0625 C 8.535156 -1.34375 8.023438 -0.785156 7.359375 -0.390625 C 6.691406 -0.00390625 5.914062 0.1875 5.03125 0.1875 Z M 5.0625 -1.53125 C 5.53125 -1.53125 5.925781 -1.660156 6.25 -1.921875 C 6.582031 -2.191406 6.832031 -2.554688 7 -3.015625 C 7.164062 -3.472656 7.25 -3.988281 7.25 -4.5625 C 7.25 -5.132812 7.164062 -5.648438 7 -6.109375 C 6.832031 -6.566406 6.582031 -6.925781 6.25 -7.1875 C 5.925781 -7.457031 5.53125 -7.59375 5.0625 -7.59375 C 4.570312 -7.59375 4.160156 -7.457031 3.828125 -7.1875 C 3.492188 -6.925781 3.242188 -6.566406 3.078125 -6.109375 C 2.910156 -5.648438 2.828125 -5.132812 2.828125 -4.5625 C 2.828125 -3.988281 2.910156 -3.472656 3.078125 -3.015625 C 3.242188 -2.554688 3.492188 -2.191406 3.828125 -1.921875 C 4.160156 -1.660156 4.570312 -1.53125 5.0625 -1.53125 Z M 5.0625 -1.53125 "/></g></g><g transform="translate(563.526544, 126.780774)"><g/></g><g transform="translate(567.63361, 126.780774)"><g><path d="M 5.359375 0.171875 C 4.554688 0.171875 3.828125 0.0195312 3.171875 -0.28125 C 2.523438 -0.582031 2.015625 -0.992188 1.640625 -1.515625 C 1.265625 -2.046875 1.066406 -2.644531 1.046875 -3.3125 L 3.203125 -3.3125 C 3.222656 -2.988281 3.328125 -2.695312 3.515625 -2.4375 C 3.710938 -2.175781 3.972656 -1.972656 4.296875 -1.828125 C 4.617188 -1.679688 4.972656 -1.609375 5.359375 -1.609375 C 5.804688 -1.609375 6.207031 -1.707031 6.5625 -1.90625 C 6.925781 -2.113281 7.207031 -2.394531 7.40625 -2.75 C 7.601562 -3.101562 7.703125 -3.503906 7.703125 -3.953125 C 7.703125 -4.421875 7.597656 -4.832031 7.390625 -5.1875 C 7.179688 -5.550781 6.894531 -5.835938 6.53125 -6.046875 C 6.164062 -6.253906 5.753906 -6.359375 5.296875 -6.359375 C 4.328125 -6.367188 3.648438 -6.019531 3.265625 -5.3125 L 1.21875 -5.3125 L 1.96875 -12.234375 L 9.203125 -12.234375 L 9.203125 -10.390625 L 3.765625 -10.390625 L 3.390625 -7.15625 L 3.515625 -7.15625 C 3.753906 -7.425781 4.082031 -7.644531 4.5 -7.8125 C 4.925781 -7.988281 5.390625 -8.078125 5.890625 -8.078125 C 6.640625 -8.078125 7.3125 -7.898438 7.90625 -7.546875 C 8.507812 -7.203125 8.984375 -6.722656 9.328125 -6.109375 C 9.671875 -5.492188 9.84375 -4.800781 9.84375 -4.03125 C 9.84375 -3.21875 9.648438 -2.492188 9.265625 -1.859375 C 8.890625 -1.222656 8.359375 -0.722656 7.671875 -0.359375 C 6.992188 -0.00390625 6.222656 0.171875 5.359375 0.171875 Z M 5.359375 0.171875 "/></g></g></g><g clip-path="url(#30f3766bfe)"><path fill="#a7727d" d="M 492.105469 56.085938 L 597.863281 56.085938 L 597.863281 99.128906 L 492.105469 99.128906 Z M 492.105469 56.085938 " fill-opacity="1" fill-rule="nonzero"/></g><g fill="#ffffff" fill-opacity="1"><g transform="translate(511.554415, 83.737731)"><g><path d="M 7.796875 -8.875 C 7.742188 -9.394531 7.507812 -9.800781 7.09375 -10.09375 C 6.675781 -10.382812 6.140625 -10.53125 5.484375 -10.53125 C 5.023438 -10.53125 4.625 -10.460938 4.28125 -10.328125 C 3.945312 -10.191406 3.691406 -10.003906 3.515625 -9.765625 C 3.335938 -9.523438 3.25 -9.25 3.25 -8.9375 C 3.25 -8.46875 3.441406 -8.101562 3.828125 -7.84375 C 4.210938 -7.59375 4.71875 -7.394531 5.34375 -7.25 L 6.5 -6.953125 C 7.550781 -6.703125 8.410156 -6.296875 9.078125 -5.734375 C 9.742188 -5.179688 10.078125 -4.414062 10.078125 -3.4375 C 10.078125 -2.71875 9.894531 -2.082031 9.53125 -1.53125 C 9.164062 -0.988281 8.632812 -0.566406 7.9375 -0.265625 C 7.238281 0.0351562 6.40625 0.1875 5.4375 0.1875 C 4.488281 0.1875 3.664062 0.0390625 2.96875 -0.25 C 2.269531 -0.550781 1.722656 -0.984375 1.328125 -1.546875 C 0.941406 -2.117188 0.726562 -2.800781 0.6875 -3.59375 L 2.859375 -3.59375 C 2.910156 -2.976562 3.171875 -2.503906 3.640625 -2.171875 C 4.109375 -1.847656 4.703125 -1.6875 5.421875 -1.6875 C 5.898438 -1.6875 6.328125 -1.757812 6.703125 -1.90625 C 7.078125 -2.050781 7.363281 -2.257812 7.5625 -2.53125 C 7.769531 -2.800781 7.875 -3.109375 7.875 -3.453125 C 7.875 -3.890625 7.6875 -4.234375 7.3125 -4.484375 C 6.945312 -4.742188 6.394531 -4.96875 5.65625 -5.15625 L 4.28125 -5.515625 C 2.101562 -6.078125 1.015625 -7.175781 1.015625 -8.8125 C 1.015625 -9.519531 1.207031 -10.144531 1.59375 -10.6875 C 1.988281 -11.226562 2.523438 -11.648438 3.203125 -11.953125 C 3.890625 -12.253906 4.660156 -12.40625 5.515625 -12.40625 C 6.367188 -12.40625 7.125 -12.253906 7.78125 -11.953125 C 8.445312 -11.648438 8.960938 -11.234375 9.328125 -10.703125 C 9.703125 -10.171875 9.894531 -9.5625 9.90625 -8.875 Z M 7.796875 -8.875 "/></g></g><g transform="translate(522.320674, 83.737731)"><g><path d="M 5.609375 -7.53125 L 3.796875 -7.53125 L 3.796875 -2.75 C 3.796875 -2.34375 3.878906 -2.0625 4.046875 -1.90625 C 4.222656 -1.757812 4.46875 -1.6875 4.78125 -1.6875 C 5.050781 -1.6875 5.367188 -1.695312 5.734375 -1.71875 L 5.734375 0.03125 C 5.453125 0.09375 5.046875 0.125 4.515625 0.125 C 3.953125 0.125 3.457031 0.03125 3.03125 -0.15625 C 2.601562 -0.34375 2.265625 -0.625 2.015625 -1 C 1.765625 -1.375 1.644531 -1.84375 1.65625 -2.40625 L 1.65625 -7.53125 L 0.34375 -7.53125 L 0.34375 -9.1875 L 1.65625 -9.1875 L 1.65625 -11.375 L 3.796875 -11.375 L 3.796875 -9.1875 L 5.609375 -9.1875 Z M 5.609375 -7.53125 "/></g></g><g transform="translate(528.557329, 83.737731)"><g><path d="M 6.890625 -9.1875 L 9.046875 -9.1875 L 9.046875 0 L 6.96875 0 L 6.96875 -1.625 L 6.859375 -1.625 C 6.640625 -1.09375 6.289062 -0.664062 5.8125 -0.34375 C 5.34375 -0.03125 4.773438 0.125 4.109375 0.125 C 3.503906 0.125 2.96875 -0.0078125 2.5 -0.28125 C 2.039062 -0.550781 1.679688 -0.945312 1.421875 -1.46875 C 1.171875 -1.988281 1.039062 -2.609375 1.03125 -3.328125 L 1.03125 -9.1875 L 3.203125 -9.1875 L 3.203125 -3.671875 C 3.203125 -3.285156 3.269531 -2.945312 3.40625 -2.65625 C 3.550781 -2.363281 3.753906 -2.140625 4.015625 -1.984375 C 4.273438 -1.835938 4.582031 -1.765625 4.9375 -1.765625 C 5.257812 -1.765625 5.570312 -1.84375 5.875 -2 C 6.175781 -2.15625 6.421875 -2.390625 6.609375 -2.703125 C 6.796875 -3.023438 6.890625 -3.410156 6.890625 -3.859375 Z M 6.890625 -9.1875 "/></g></g><g transform="translate(538.630627, 83.737731)"><g><path d="M 4.453125 0.171875 C 3.722656 0.171875 3.070312 -0.015625 2.5 -0.390625 C 1.925781 -0.765625 1.472656 -1.3125 1.140625 -2.03125 C 0.816406 -2.75 0.65625 -3.597656 0.65625 -4.578125 C 0.65625 -5.566406 0.820312 -6.414062 1.15625 -7.125 C 1.488281 -7.84375 1.941406 -8.382812 2.515625 -8.75 C 3.085938 -9.113281 3.738281 -9.296875 4.46875 -9.296875 C 5.6875 -9.296875 6.554688 -8.753906 7.078125 -7.671875 L 7.171875 -7.671875 L 7.171875 -12.234375 L 9.3125 -12.234375 L 9.3125 0 L 7.203125 0 L 7.203125 -1.453125 L 7.078125 -1.453125 C 6.535156 -0.367188 5.660156 0.171875 4.453125 0.171875 Z M 5.03125 -1.609375 C 5.488281 -1.609375 5.878906 -1.726562 6.203125 -1.96875 C 6.535156 -2.21875 6.785156 -2.566406 6.953125 -3.015625 C 7.128906 -3.472656 7.21875 -4 7.21875 -4.59375 C 7.21875 -5.1875 7.132812 -5.703125 6.96875 -6.140625 C 6.800781 -6.585938 6.550781 -6.929688 6.21875 -7.171875 C 5.894531 -7.421875 5.5 -7.546875 5.03125 -7.546875 C 4.570312 -7.546875 4.175781 -7.421875 3.84375 -7.171875 C 3.519531 -6.921875 3.273438 -6.570312 3.109375 -6.125 C 2.941406 -5.675781 2.859375 -5.164062 2.859375 -4.59375 C 2.859375 -4.007812 2.941406 -3.488281 3.109375 -3.03125 C 3.273438 -2.582031 3.519531 -2.234375 3.84375 -1.984375 C 4.175781 -1.734375 4.570312 -1.609375 5.03125 -1.609375 Z M 5.03125 -1.609375 "/></g></g><g transform="translate(549.092658, 83.737731)"><g><path d="M 1.03125 -9.1875 L 3.203125 -9.1875 L 3.203125 0 L 1.03125 0 Z M 2.140625 -10.484375 C 1.921875 -10.484375 1.710938 -10.535156 1.515625 -10.640625 C 1.316406 -10.742188 1.160156 -10.882812 1.046875 -11.0625 C 0.941406 -11.25 0.890625 -11.453125 0.890625 -11.671875 C 0.890625 -11.878906 0.941406 -12.070312 1.046875 -12.25 C 1.160156 -12.425781 1.316406 -12.566406 1.515625 -12.671875 C 1.710938 -12.773438 1.921875 -12.828125 2.140625 -12.828125 C 2.359375 -12.828125 2.5625 -12.773438 2.75 -12.671875 C 2.945312 -12.566406 3.101562 -12.425781 3.21875 -12.25 C 3.332031 -12.070312 3.390625 -11.878906 3.390625 -11.671875 C 3.390625 -11.453125 3.332031 -11.25 3.21875 -11.0625 C 3.101562 -10.882812 2.945312 -10.742188 2.75 -10.640625 C 2.5625 -10.535156 2.359375 -10.484375 2.140625 -10.484375 Z M 2.140625 -10.484375 "/></g></g><g transform="translate(553.318035, 83.737731)"><g><path d="M 5.03125 0.1875 C 4.15625 0.1875 3.382812 -0.0078125 2.71875 -0.40625 C 2.050781 -0.800781 1.535156 -1.351562 1.171875 -2.0625 C 0.816406 -2.78125 0.640625 -3.609375 0.640625 -4.546875 C 0.640625 -5.492188 0.816406 -6.320312 1.171875 -7.03125 C 1.535156 -7.75 2.050781 -8.304688 2.71875 -8.703125 C 3.382812 -9.097656 4.15625 -9.296875 5.03125 -9.296875 C 5.914062 -9.296875 6.691406 -9.097656 7.359375 -8.703125 C 8.023438 -8.304688 8.535156 -7.75 8.890625 -7.03125 C 9.253906 -6.320312 9.4375 -5.492188 9.4375 -4.546875 C 9.4375 -3.609375 9.253906 -2.78125 8.890625 -2.0625 C 8.535156 -1.34375 8.023438 -0.785156 7.359375 -0.390625 C 6.691406 -0.00390625 5.914062 0.1875 5.03125 0.1875 Z M 5.0625 -1.53125 C 5.53125 -1.53125 5.925781 -1.660156 6.25 -1.921875 C 6.582031 -2.191406 6.832031 -2.554688 7 -3.015625 C 7.164062 -3.472656 7.25 -3.988281 7.25 -4.5625 C 7.25 -5.132812 7.164062 -5.648438 7 -6.109375 C 6.832031 -6.566406 6.582031 -6.925781 6.25 -7.1875 C 5.925781 -7.457031 5.53125 -7.59375 5.0625 -7.59375 C 4.570312 -7.59375 4.160156 -7.457031 3.828125 -7.1875 C 3.492188 -6.925781 3.242188 -6.566406 3.078125 -6.109375 C 2.910156 -5.648438 2.828125 -5.132812 2.828125 -4.5625 C 2.828125 -3.988281 2.910156 -3.472656 3.078125 -3.015625 C 3.242188 -2.554688 3.492188 -2.191406 3.828125 -1.921875 C 4.160156 -1.660156 4.570312 -1.53125 5.0625 -1.53125 Z M 5.0625 -1.53125 "/></g></g><g transform="translate(563.391332, 83.737731)"><g/></g><g transform="translate(567.498398, 83.737731)"><g><path d="M 5.625 0.171875 C 4.757812 0.171875 3.96875 -0.015625 3.25 -0.390625 C 2.53125 -0.773438 1.941406 -1.410156 1.484375 -2.296875 C 1.035156 -3.191406 0.816406 -4.351562 0.828125 -5.78125 C 0.828125 -7.164062 1.023438 -8.351562 1.421875 -9.34375 C 1.828125 -10.34375 2.394531 -11.101562 3.125 -11.625 C 3.863281 -12.144531 4.734375 -12.40625 5.734375 -12.40625 C 6.503906 -12.40625 7.191406 -12.253906 7.796875 -11.953125 C 8.410156 -11.660156 8.90625 -11.25 9.28125 -10.71875 C 9.664062 -10.195312 9.898438 -9.601562 9.984375 -8.9375 L 7.8125 -8.9375 C 7.695312 -9.414062 7.457031 -9.796875 7.09375 -10.078125 C 6.726562 -10.359375 6.273438 -10.5 5.734375 -10.5 C 5.148438 -10.5 4.648438 -10.332031 4.234375 -10 C 3.816406 -9.664062 3.5 -9.1875 3.28125 -8.5625 C 3.0625 -7.945312 2.953125 -7.210938 2.953125 -6.359375 L 3.078125 -6.359375 C 3.390625 -6.878906 3.820312 -7.285156 4.375 -7.578125 C 4.9375 -7.878906 5.550781 -8.03125 6.21875 -8.03125 C 6.945312 -8.03125 7.609375 -7.859375 8.203125 -7.515625 C 8.796875 -7.179688 9.257812 -6.710938 9.59375 -6.109375 C 9.9375 -5.503906 10.109375 -4.820312 10.109375 -4.0625 C 10.109375 -3.257812 9.921875 -2.535156 9.546875 -1.890625 C 9.171875 -1.253906 8.644531 -0.75 7.96875 -0.375 C 7.289062 -0.0078125 6.507812 0.171875 5.625 0.171875 Z M 5.59375 -1.609375 C 6.039062 -1.609375 6.445312 -1.710938 6.8125 -1.921875 C 7.175781 -2.140625 7.460938 -2.429688 7.671875 -2.796875 C 7.878906 -3.160156 7.984375 -3.5625 7.984375 -4 C 7.984375 -4.4375 7.878906 -4.832031 7.671875 -5.1875 C 7.472656 -5.550781 7.191406 -5.835938 6.828125 -6.046875 C 6.472656 -6.253906 6.070312 -6.359375 5.625 -6.359375 C 5.1875 -6.359375 4.78125 -6.25 4.40625 -6.03125 C 4.03125 -5.820312 3.734375 -5.535156 3.515625 -5.171875 C 3.304688 -4.804688 3.203125 -4.410156 3.203125 -3.984375 C 3.203125 -3.554688 3.304688 -3.160156 3.515625 -2.796875 C 3.722656 -2.429688 4.007812 -2.140625 4.375 -1.921875 C 4.738281 -1.710938 5.144531 -1.609375 5.59375 -1.609375 Z M 5.59375 -1.609375 "/></g></g></g><g clip-path="url(#b73af3dc62)"><path fill="#ffc164" d="M 48.429688 99.128906 L 132.253906 99.128906 L 132.253906 228.46875 L 48.429688 228.46875 Z M 48.429688 99.128906 " fill-opacity="1" fill-rule="nonzero"/></g><g fill="#ffffff" fill-opacity="1"><g transform="translate(58.412155, 169.886448)"><g><path d="M 7.78125 -8.875 C 7.738281 -9.382812 7.507812 -9.785156 7.09375 -10.078125 C 6.675781 -10.367188 6.132812 -10.515625 5.46875 -10.515625 C 5.019531 -10.515625 4.625 -10.445312 4.28125 -10.3125 C 3.945312 -10.1875 3.691406 -10 3.515625 -9.75 C 3.335938 -9.507812 3.25 -9.238281 3.25 -8.9375 C 3.25 -8.46875 3.441406 -8.101562 3.828125 -7.84375 C 4.210938 -7.59375 4.71875 -7.394531 5.34375 -7.25 L 6.484375 -6.9375 C 7.535156 -6.695312 8.394531 -6.296875 9.0625 -5.734375 C 9.726562 -5.179688 10.0625 -4.410156 10.0625 -3.421875 C 10.0625 -2.710938 9.878906 -2.082031 9.515625 -1.53125 C 9.148438 -0.988281 8.617188 -0.566406 7.921875 -0.265625 C 7.234375 0.0351562 6.40625 0.1875 5.4375 0.1875 C 4.488281 0.1875 3.664062 0.0390625 2.96875 -0.25 C 2.269531 -0.550781 1.722656 -0.984375 1.328125 -1.546875 C 0.941406 -2.117188 0.726562 -2.800781 0.6875 -3.59375 L 2.859375 -3.59375 C 2.910156 -2.976562 3.171875 -2.503906 3.640625 -2.171875 C 4.109375 -1.847656 4.703125 -1.6875 5.421875 -1.6875 C 5.898438 -1.6875 6.320312 -1.757812 6.6875 -1.90625 C 7.0625 -2.050781 7.351562 -2.257812 7.5625 -2.53125 C 7.769531 -2.800781 7.875 -3.109375 7.875 -3.453125 C 7.875 -3.890625 7.6875 -4.234375 7.3125 -4.484375 C 6.945312 -4.734375 6.394531 -4.957031 5.65625 -5.15625 L 4.28125 -5.5 C 2.101562 -6.070312 1.015625 -7.171875 1.015625 -8.796875 C 1.015625 -9.503906 1.207031 -10.128906 1.59375 -10.671875 C 1.976562 -11.222656 2.515625 -11.644531 3.203125 -11.9375 C 3.890625 -12.238281 4.65625 -12.390625 5.5 -12.390625 C 6.363281 -12.390625 7.125 -12.238281 7.78125 -11.9375 C 8.445312 -11.644531 8.960938 -11.226562 9.328125 -10.6875 C 9.691406 -10.15625 9.878906 -9.550781 9.890625 -8.875 Z M 7.78125 -8.875 "/></g></g></g><g fill="#ffffff" fill-opacity="1"><g transform="translate(69.171405, 169.886448)"><g><path d="M 5.609375 -7.515625 L 3.796875 -7.515625 L 3.796875 -2.75 C 3.796875 -2.34375 3.878906 -2.0625 4.046875 -1.90625 C 4.222656 -1.757812 4.46875 -1.6875 4.78125 -1.6875 C 5.050781 -1.6875 5.363281 -1.695312 5.71875 -1.71875 L 5.71875 0.03125 C 5.4375 0.09375 5.035156 0.125 4.515625 0.125 C 3.953125 0.125 3.453125 0.03125 3.015625 -0.15625 C 2.585938 -0.34375 2.25 -0.625 2 -1 C 1.757812 -1.375 1.644531 -1.84375 1.65625 -2.40625 L 1.65625 -7.515625 L 0.34375 -7.515625 L 0.34375 -9.171875 L 1.65625 -9.171875 L 1.65625 -11.375 L 3.796875 -11.375 L 3.796875 -9.171875 L 5.609375 -9.171875 Z M 5.609375 -7.515625 "/></g></g></g><g fill="#ffffff" fill-opacity="1"><g transform="translate(75.404, 169.886448)"><g><path d="M 6.890625 -9.171875 L 9.03125 -9.171875 L 9.03125 0 L 6.953125 0 L 6.953125 -1.625 L 6.859375 -1.625 C 6.640625 -1.09375 6.289062 -0.664062 5.8125 -0.34375 C 5.332031 -0.03125 4.765625 0.125 4.109375 0.125 C 3.503906 0.125 2.96875 -0.0078125 2.5 -0.28125 C 2.039062 -0.550781 1.679688 -0.945312 1.421875 -1.46875 C 1.160156 -1.988281 1.03125 -2.609375 1.03125 -3.328125 L 1.03125 -9.171875 L 3.1875 -9.171875 L 3.1875 -3.671875 C 3.1875 -3.285156 3.257812 -2.945312 3.40625 -2.65625 C 3.550781 -2.363281 3.753906 -2.140625 4.015625 -1.984375 C 4.273438 -1.828125 4.582031 -1.75 4.9375 -1.75 C 5.257812 -1.75 5.570312 -1.828125 5.875 -1.984375 C 6.175781 -2.148438 6.421875 -2.390625 6.609375 -2.703125 C 6.796875 -3.023438 6.890625 -3.40625 6.890625 -3.84375 Z M 6.890625 -9.171875 "/></g></g></g><g fill="#ffffff" fill-opacity="1"><g transform="translate(85.470739, 169.886448)"><g><path d="M 4.4375 0.171875 C 3.71875 0.171875 3.070312 -0.015625 2.5 -0.390625 C 1.925781 -0.765625 1.472656 -1.304688 1.140625 -2.015625 C 0.816406 -2.734375 0.65625 -3.585938 0.65625 -4.578125 C 0.65625 -5.566406 0.820312 -6.414062 1.15625 -7.125 C 1.488281 -7.832031 1.941406 -8.367188 2.515625 -8.734375 C 3.085938 -9.109375 3.734375 -9.296875 4.453125 -9.296875 C 5.671875 -9.296875 6.546875 -8.753906 7.078125 -7.671875 L 7.15625 -7.671875 L 7.15625 -12.234375 L 9.3125 -12.234375 L 9.3125 0 L 7.203125 0 L 7.203125 -1.453125 L 7.078125 -1.453125 C 6.535156 -0.367188 5.65625 0.171875 4.4375 0.171875 Z M 5.03125 -1.609375 C 5.488281 -1.609375 5.878906 -1.726562 6.203125 -1.96875 C 6.535156 -2.21875 6.785156 -2.566406 6.953125 -3.015625 C 7.128906 -3.472656 7.21875 -4 7.21875 -4.59375 C 7.21875 -5.1875 7.128906 -5.703125 6.953125 -6.140625 C 6.785156 -6.585938 6.535156 -6.929688 6.203125 -7.171875 C 5.878906 -7.410156 5.488281 -7.53125 5.03125 -7.53125 C 4.5625 -7.53125 4.164062 -7.40625 3.84375 -7.15625 C 3.519531 -6.914062 3.273438 -6.570312 3.109375 -6.125 C 2.941406 -5.675781 2.859375 -5.164062 2.859375 -4.59375 C 2.859375 -4.007812 2.941406 -3.488281 3.109375 -3.03125 C 3.273438 -2.582031 3.519531 -2.234375 3.84375 -1.984375 C 4.175781 -1.734375 4.570312 -1.609375 5.03125 -1.609375 Z M 5.03125 -1.609375 "/></g></g></g><g fill="#ffffff" fill-opacity="1"><g transform="translate(95.92596, 169.886448)"><g><path d="M 1.03125 -9.171875 L 3.1875 -9.171875 L 3.1875 0 L 1.03125 0 Z M 2.140625 -10.46875 C 1.921875 -10.46875 1.710938 -10.519531 1.515625 -10.625 C 1.316406 -10.726562 1.160156 -10.867188 1.046875 -11.046875 C 0.941406 -11.234375 0.890625 -11.4375 0.890625 -11.65625 C 0.890625 -11.863281 0.941406 -12.054688 1.046875 -12.234375 C 1.160156 -12.421875 1.316406 -12.566406 1.515625 -12.671875 C 1.710938 -12.773438 1.921875 -12.828125 2.140625 -12.828125 C 2.359375 -12.828125 2.5625 -12.773438 2.75 -12.671875 C 2.945312 -12.566406 3.101562 -12.421875 3.21875 -12.234375 C 3.332031 -12.054688 3.390625 -11.863281 3.390625 -11.65625 C 3.390625 -11.4375 3.332031 -11.234375 3.21875 -11.046875 C 3.101562 -10.867188 2.945312 -10.726562 2.75 -10.625 C 2.5625 -10.519531 2.359375 -10.46875 2.140625 -10.46875 Z M 2.140625 -10.46875 "/></g></g></g><g fill="#ffffff" fill-opacity="1"><g transform="translate(100.148585, 169.886448)"><g><path d="M 5.03125 0.1875 C 4.15625 0.1875 3.382812 -0.0078125 2.71875 -0.40625 C 2.050781 -0.800781 1.535156 -1.351562 1.171875 -2.0625 C 0.816406 -2.78125 0.640625 -3.609375 0.640625 -4.546875 C 0.640625 -5.492188 0.816406 -6.320312 1.171875 -7.03125 C 1.535156 -7.75 2.050781 -8.304688 2.71875 -8.703125 C 3.382812 -9.097656 4.15625 -9.296875 5.03125 -9.296875 C 5.914062 -9.296875 6.691406 -9.097656 7.359375 -8.703125 C 8.023438 -8.304688 8.535156 -7.75 8.890625 -7.03125 C 9.242188 -6.320312 9.421875 -5.492188 9.421875 -4.546875 C 9.421875 -3.609375 9.238281 -2.78125 8.875 -2.0625 C 8.519531 -1.34375 8.007812 -0.785156 7.34375 -0.390625 C 6.6875 -0.00390625 5.914062 0.1875 5.03125 0.1875 Z M 5.046875 -1.53125 C 5.523438 -1.53125 5.925781 -1.660156 6.25 -1.921875 C 6.582031 -2.191406 6.832031 -2.554688 7 -3.015625 C 7.164062 -3.472656 7.25 -3.988281 7.25 -4.5625 C 7.25 -5.125 7.164062 -5.632812 7 -6.09375 C 6.832031 -6.5625 6.582031 -6.925781 6.25 -7.1875 C 5.925781 -7.445312 5.523438 -7.578125 5.046875 -7.578125 C 4.566406 -7.578125 4.15625 -7.445312 3.8125 -7.1875 C 3.476562 -6.925781 3.226562 -6.566406 3.0625 -6.109375 C 2.90625 -5.648438 2.828125 -5.132812 2.828125 -4.5625 C 2.828125 -3.988281 2.90625 -3.472656 3.0625 -3.015625 C 3.226562 -2.554688 3.476562 -2.191406 3.8125 -1.921875 C 4.15625 -1.660156 4.566406 -1.53125 5.046875 -1.53125 Z M 5.046875 -1.53125 "/></g></g></g><g fill="#ffffff" fill-opacity="1"><g transform="translate(110.215324, 169.886448)"><g/></g></g><g fill="#ffffff" fill-opacity="1"><g transform="translate(114.319716, 169.886448)"><g><path d="M 5.984375 0 L 3.765625 0 L 3.765625 -10.078125 L 3.703125 -10.078125 L 0.84375 -8.265625 L 0.84375 -10.265625 L 3.875 -12.234375 L 5.984375 -12.234375 Z M 5.984375 0 "/></g></g></g><g clip-path="url(#01e8020e1c)"><path fill="#ff7f7f" d="M 157.589844 99.128906 L 241.414062 99.128906 L 241.414062 228.46875 L 157.589844 228.46875 Z M 157.589844 99.128906 " fill-opacity="1" fill-rule="nonzero"/></g><g fill="#ffffff" fill-opacity="1"><g transform="translate(166.309426, 169.886448)"><g><path d="M 7.796875 -8.875 C 7.742188 -9.394531 7.507812 -9.800781 7.09375 -10.09375 C 6.675781 -10.382812 6.140625 -10.53125 5.484375 -10.53125 C 5.023438 -10.53125 4.625 -10.460938 4.28125 -10.328125 C 3.945312 -10.191406 3.691406 -10.003906 3.515625 -9.765625 C 3.335938 -9.523438 3.25 -9.25 3.25 -8.9375 C 3.25 -8.46875 3.441406 -8.101562 3.828125 -7.84375 C 4.210938 -7.59375 4.71875 -7.394531 5.34375 -7.25 L 6.5 -6.953125 C 7.550781 -6.703125 8.410156 -6.296875 9.078125 -5.734375 C 9.742188 -5.179688 10.078125 -4.414062 10.078125 -3.4375 C 10.078125 -2.71875 9.894531 -2.082031 9.53125 -1.53125 C 9.164062 -0.988281 8.632812 -0.566406 7.9375 -0.265625 C 7.238281 0.0351562 6.40625 0.1875 5.4375 0.1875 C 4.488281 0.1875 3.664062 0.0390625 2.96875 -0.25 C 2.269531 -0.550781 1.722656 -0.984375 1.328125 -1.546875 C 0.941406 -2.117188 0.726562 -2.800781 0.6875 -3.59375 L 2.859375 -3.59375 C 2.910156 -2.976562 3.171875 -2.503906 3.640625 -2.171875 C 4.109375 -1.847656 4.703125 -1.6875 5.421875 -1.6875 C 5.898438 -1.6875 6.328125 -1.757812 6.703125 -1.90625 C 7.078125 -2.050781 7.363281 -2.257812 7.5625 -2.53125 C 7.769531 -2.800781 7.875 -3.109375 7.875 -3.453125 C 7.875 -3.890625 7.6875 -4.234375 7.3125 -4.484375 C 6.945312 -4.742188 6.394531 -4.96875 5.65625 -5.15625 L 4.28125 -5.515625 C 2.101562 -6.078125 1.015625 -7.175781 1.015625 -8.8125 C 1.015625 -9.519531 1.207031 -10.144531 1.59375 -10.6875 C 1.988281 -11.226562 2.523438 -11.648438 3.203125 -11.953125 C 3.890625 -12.253906 4.660156 -12.40625 5.515625 -12.40625 C 6.367188 -12.40625 7.125 -12.253906 7.78125 -11.953125 C 8.445312 -11.648438 8.960938 -11.234375 9.328125 -10.703125 C 9.703125 -10.171875 9.894531 -9.5625 9.90625 -8.875 Z M 7.796875 -8.875 "/></g></g><g transform="translate(177.075685, 169.886448)"><g><path d="M 5.609375 -7.53125 L 3.796875 -7.53125 L 3.796875 -2.75 C 3.796875 -2.34375 3.878906 -2.0625 4.046875 -1.90625 C 4.222656 -1.757812 4.46875 -1.6875 4.78125 -1.6875 C 5.050781 -1.6875 5.367188 -1.695312 5.734375 -1.71875 L 5.734375 0.03125 C 5.453125 0.09375 5.046875 0.125 4.515625 0.125 C 3.953125 0.125 3.457031 0.03125 3.03125 -0.15625 C 2.601562 -0.34375 2.265625 -0.625 2.015625 -1 C 1.765625 -1.375 1.644531 -1.84375 1.65625 -2.40625 L 1.65625 -7.53125 L 0.34375 -7.53125 L 0.34375 -9.1875 L 1.65625 -9.1875 L 1.65625 -11.375 L 3.796875 -11.375 L 3.796875 -9.1875 L 5.609375 -9.1875 Z M 5.609375 -7.53125 "/></g></g><g transform="translate(183.312341, 169.886448)"><g><path d="M 6.890625 -9.1875 L 9.046875 -9.1875 L 9.046875 0 L 6.96875 0 L 6.96875 -1.625 L 6.859375 -1.625 C 6.640625 -1.09375 6.289062 -0.664062 5.8125 -0.34375 C 5.34375 -0.03125 4.773438 0.125 4.109375 0.125 C 3.503906 0.125 2.96875 -0.0078125 2.5 -0.28125 C 2.039062 -0.550781 1.679688 -0.945312 1.421875 -1.46875 C 1.171875 -1.988281 1.039062 -2.609375 1.03125 -3.328125 L 1.03125 -9.1875 L 3.203125 -9.1875 L 3.203125 -3.671875 C 3.203125 -3.285156 3.269531 -2.945312 3.40625 -2.65625 C 3.550781 -2.363281 3.753906 -2.140625 4.015625 -1.984375 C 4.273438 -1.835938 4.582031 -1.765625 4.9375 -1.765625 C 5.257812 -1.765625 5.570312 -1.84375 5.875 -2 C 6.175781 -2.15625 6.421875 -2.390625 6.609375 -2.703125 C 6.796875 -3.023438 6.890625 -3.410156 6.890625 -3.859375 Z M 6.890625 -9.1875 "/></g></g><g transform="translate(193.385638, 169.886448)"><g><path d="M 4.453125 0.171875 C 3.722656 0.171875 3.070312 -0.015625 2.5 -0.390625 C 1.925781 -0.765625 1.472656 -1.3125 1.140625 -2.03125 C 0.816406 -2.75 0.65625 -3.597656 0.65625 -4.578125 C 0.65625 -5.566406 0.820312 -6.414062 1.15625 -7.125 C 1.488281 -7.84375 1.941406 -8.382812 2.515625 -8.75 C 3.085938 -9.113281 3.738281 -9.296875 4.46875 -9.296875 C 5.6875 -9.296875 6.554688 -8.753906 7.078125 -7.671875 L 7.171875 -7.671875 L 7.171875 -12.234375 L 9.3125 -12.234375 L 9.3125 0 L 7.203125 0 L 7.203125 -1.453125 L 7.078125 -1.453125 C 6.535156 -0.367188 5.660156 0.171875 4.453125 0.171875 Z M 5.03125 -1.609375 C 5.488281 -1.609375 5.878906 -1.726562 6.203125 -1.96875 C 6.535156 -2.21875 6.785156 -2.566406 6.953125 -3.015625 C 7.128906 -3.472656 7.21875 -4 7.21875 -4.59375 C 7.21875 -5.1875 7.132812 -5.703125 6.96875 -6.140625 C 6.800781 -6.585938 6.550781 -6.929688 6.21875 -7.171875 C 5.894531 -7.421875 5.5 -7.546875 5.03125 -7.546875 C 4.570312 -7.546875 4.175781 -7.421875 3.84375 -7.171875 C 3.519531 -6.921875 3.273438 -6.570312 3.109375 -6.125 C 2.941406 -5.675781 2.859375 -5.164062 2.859375 -4.59375 C 2.859375 -4.007812 2.941406 -3.488281 3.109375 -3.03125 C 3.273438 -2.582031 3.519531 -2.234375 3.84375 -1.984375 C 4.175781 -1.734375 4.570312 -1.609375 5.03125 -1.609375 Z M 5.03125 -1.609375 "/></g></g><g transform="translate(203.84767, 169.886448)"><g><path d="M 1.03125 -9.1875 L 3.203125 -9.1875 L 3.203125 0 L 1.03125 0 Z M 2.140625 -10.484375 C 1.921875 -10.484375 1.710938 -10.535156 1.515625 -10.640625 C 1.316406 -10.742188 1.160156 -10.882812 1.046875 -11.0625 C 0.941406 -11.25 0.890625 -11.453125 0.890625 -11.671875 C 0.890625 -11.878906 0.941406 -12.070312 1.046875 -12.25 C 1.160156 -12.425781 1.316406 -12.566406 1.515625 -12.671875 C 1.710938 -12.773438 1.921875 -12.828125 2.140625 -12.828125 C 2.359375 -12.828125 2.5625 -12.773438 2.75 -12.671875 C 2.945312 -12.566406 3.101562 -12.425781 3.21875 -12.25 C 3.332031 -12.070312 3.390625 -11.878906 3.390625 -11.671875 C 3.390625 -11.453125 3.332031 -11.25 3.21875 -11.0625 C 3.101562 -10.882812 2.945312 -10.742188 2.75 -10.640625 C 2.5625 -10.535156 2.359375 -10.484375 2.140625 -10.484375 Z M 2.140625 -10.484375 "/></g></g><g transform="translate(208.073046, 169.886448)"><g><path d="M 5.03125 0.1875 C 4.15625 0.1875 3.382812 -0.0078125 2.71875 -0.40625 C 2.050781 -0.800781 1.535156 -1.351562 1.171875 -2.0625 C 0.816406 -2.78125 0.640625 -3.609375 0.640625 -4.546875 C 0.640625 -5.492188 0.816406 -6.320312 1.171875 -7.03125 C 1.535156 -7.75 2.050781 -8.304688 2.71875 -8.703125 C 3.382812 -9.097656 4.15625 -9.296875 5.03125 -9.296875 C 5.914062 -9.296875 6.691406 -9.097656 7.359375 -8.703125 C 8.023438 -8.304688 8.535156 -7.75 8.890625 -7.03125 C 9.253906 -6.320312 9.4375 -5.492188 9.4375 -4.546875 C 9.4375 -3.609375 9.253906 -2.78125 8.890625 -2.0625 C 8.535156 -1.34375 8.023438 -0.785156 7.359375 -0.390625 C 6.691406 -0.00390625 5.914062 0.1875 5.03125 0.1875 Z M 5.0625 -1.53125 C 5.53125 -1.53125 5.925781 -1.660156 6.25 -1.921875 C 6.582031 -2.191406 6.832031 -2.554688 7 -3.015625 C 7.164062 -3.472656 7.25 -3.988281 7.25 -4.5625 C 7.25 -5.132812 7.164062 -5.648438 7 -6.109375 C 6.832031 -6.566406 6.582031 -6.925781 6.25 -7.1875 C 5.925781 -7.457031 5.53125 -7.59375 5.0625 -7.59375 C 4.570312 -7.59375 4.160156 -7.457031 3.828125 -7.1875 C 3.492188 -6.925781 3.242188 -6.566406 3.078125 -6.109375 C 2.910156 -5.648438 2.828125 -5.132812 2.828125 -4.5625 C 2.828125 -3.988281 2.910156 -3.472656 3.078125 -3.015625 C 3.242188 -2.554688 3.492188 -2.191406 3.828125 -1.921875 C 4.160156 -1.660156 4.570312 -1.53125 5.0625 -1.53125 Z M 5.0625 -1.53125 "/></g></g><g transform="translate(218.146343, 169.886448)"><g/></g><g transform="translate(222.253409, 169.886448)"><g><path d="M 1.015625 -1.59375 L 5.34375 -5.765625 C 5.8125 -6.234375 6.171875 -6.617188 6.421875 -6.921875 C 6.679688 -7.222656 6.878906 -7.519531 7.015625 -7.8125 C 7.148438 -8.113281 7.21875 -8.425781 7.21875 -8.75 C 7.21875 -9.125 7.125 -9.453125 6.9375 -9.734375 C 6.757812 -10.015625 6.507812 -10.234375 6.1875 -10.390625 C 5.875 -10.546875 5.519531 -10.625 5.125 -10.625 C 4.707031 -10.625 4.34375 -10.539062 4.03125 -10.375 C 3.71875 -10.207031 3.472656 -9.96875 3.296875 -9.65625 C 3.128906 -9.351562 3.050781 -9 3.0625 -8.59375 L 0.96875 -8.59375 C 0.957031 -9.351562 1.128906 -10.019531 1.484375 -10.59375 C 1.835938 -11.175781 2.332031 -11.625 2.96875 -11.9375 C 3.601562 -12.25 4.328125 -12.40625 5.140625 -12.40625 C 5.960938 -12.40625 6.691406 -12.253906 7.328125 -11.953125 C 7.960938 -11.648438 8.453125 -11.226562 8.796875 -10.6875 C 9.148438 -10.144531 9.328125 -9.535156 9.328125 -8.859375 C 9.328125 -8.390625 9.234375 -7.929688 9.046875 -7.484375 C 8.867188 -7.046875 8.5625 -6.5625 8.125 -6.03125 C 7.6875 -5.5 7.0625 -4.851562 6.25 -4.09375 L 4.078125 -1.921875 L 4.078125 -1.84375 L 9.515625 -1.84375 L 9.515625 0 L 1.015625 0 Z M 1.015625 -1.59375 "/></g></g></g><g clip-path="url(#bb3c997877)"><path fill="#89c7ad" d="M 251.160156 142.171875 L 370.710938 142.171875 L 370.710938 228.382812 L 251.160156 228.382812 Z M 251.160156 142.171875 " fill-opacity="1" fill-rule="nonzero"/></g><g fill="#ffffff" fill-opacity="1"><g transform="translate(277.550519, 191.40798)"><g><path d="M 7.796875 -8.875 C 7.742188 -9.394531 7.507812 -9.800781 7.09375 -10.09375 C 6.675781 -10.382812 6.140625 -10.53125 5.484375 -10.53125 C 5.023438 -10.53125 4.625 -10.460938 4.28125 -10.328125 C 3.945312 -10.191406 3.691406 -10.003906 3.515625 -9.765625 C 3.335938 -9.523438 3.25 -9.25 3.25 -8.9375 C 3.25 -8.46875 3.441406 -8.101562 3.828125 -7.84375 C 4.210938 -7.59375 4.71875 -7.394531 5.34375 -7.25 L 6.5 -6.953125 C 7.550781 -6.703125 8.410156 -6.296875 9.078125 -5.734375 C 9.742188 -5.179688 10.078125 -4.414062 10.078125 -3.4375 C 10.078125 -2.71875 9.894531 -2.082031 9.53125 -1.53125 C 9.164062 -0.988281 8.632812 -0.566406 7.9375 -0.265625 C 7.238281 0.0351562 6.40625 0.1875 5.4375 0.1875 C 4.488281 0.1875 3.664062 0.0390625 2.96875 -0.25 C 2.269531 -0.550781 1.722656 -0.984375 1.328125 -1.546875 C 0.941406 -2.117188 0.726562 -2.800781 0.6875 -3.59375 L 2.859375 -3.59375 C 2.910156 -2.976562 3.171875 -2.503906 3.640625 -2.171875 C 4.109375 -1.847656 4.703125 -1.6875 5.421875 -1.6875 C 5.898438 -1.6875 6.328125 -1.757812 6.703125 -1.90625 C 7.078125 -2.050781 7.363281 -2.257812 7.5625 -2.53125 C 7.769531 -2.800781 7.875 -3.109375 7.875 -3.453125 C 7.875 -3.890625 7.6875 -4.234375 7.3125 -4.484375 C 6.945312 -4.742188 6.394531 -4.96875 5.65625 -5.15625 L 4.28125 -5.515625 C 2.101562 -6.078125 1.015625 -7.175781 1.015625 -8.8125 C 1.015625 -9.519531 1.207031 -10.144531 1.59375 -10.6875 C 1.988281 -11.226562 2.523438 -11.648438 3.203125 -11.953125 C 3.890625 -12.253906 4.660156 -12.40625 5.515625 -12.40625 C 6.367188 -12.40625 7.125 -12.253906 7.78125 -11.953125 C 8.445312 -11.648438 8.960938 -11.234375 9.328125 -10.703125 C 9.703125 -10.171875 9.894531 -9.5625 9.90625 -8.875 Z M 7.796875 -8.875 "/></g></g><g transform="translate(288.316778, 191.40798)"><g><path d="M 5.609375 -7.53125 L 3.796875 -7.53125 L 3.796875 -2.75 C 3.796875 -2.34375 3.878906 -2.0625 4.046875 -1.90625 C 4.222656 -1.757812 4.46875 -1.6875 4.78125 -1.6875 C 5.050781 -1.6875 5.367188 -1.695312 5.734375 -1.71875 L 5.734375 0.03125 C 5.453125 0.09375 5.046875 0.125 4.515625 0.125 C 3.953125 0.125 3.457031 0.03125 3.03125 -0.15625 C 2.601562 -0.34375 2.265625 -0.625 2.015625 -1 C 1.765625 -1.375 1.644531 -1.84375 1.65625 -2.40625 L 1.65625 -7.53125 L 0.34375 -7.53125 L 0.34375 -9.1875 L 1.65625 -9.1875 L 1.65625 -11.375 L 3.796875 -11.375 L 3.796875 -9.1875 L 5.609375 -9.1875 Z M 5.609375 -7.53125 "/></g></g><g transform="translate(294.553433, 191.40798)"><g><path d="M 6.890625 -9.1875 L 9.046875 -9.1875 L 9.046875 0 L 6.96875 0 L 6.96875 -1.625 L 6.859375 -1.625 C 6.640625 -1.09375 6.289062 -0.664062 5.8125 -0.34375 C 5.34375 -0.03125 4.773438 0.125 4.109375 0.125 C 3.503906 0.125 2.96875 -0.0078125 2.5 -0.28125 C 2.039062 -0.550781 1.679688 -0.945312 1.421875 -1.46875 C 1.171875 -1.988281 1.039062 -2.609375 1.03125 -3.328125 L 1.03125 -9.1875 L 3.203125 -9.1875 L 3.203125 -3.671875 C 3.203125 -3.285156 3.269531 -2.945312 3.40625 -2.65625 C 3.550781 -2.363281 3.753906 -2.140625 4.015625 -1.984375 C 4.273438 -1.835938 4.582031 -1.765625 4.9375 -1.765625 C 5.257812 -1.765625 5.570312 -1.84375 5.875 -2 C 6.175781 -2.15625 6.421875 -2.390625 6.609375 -2.703125 C 6.796875 -3.023438 6.890625 -3.410156 6.890625 -3.859375 Z M 6.890625 -9.1875 "/></g></g><g transform="translate(304.62673, 191.40798)"><g><path d="M 4.453125 0.171875 C 3.722656 0.171875 3.070312 -0.015625 2.5 -0.390625 C 1.925781 -0.765625 1.472656 -1.3125 1.140625 -2.03125 C 0.816406 -2.75 0.65625 -3.597656 0.65625 -4.578125 C 0.65625 -5.566406 0.820312 -6.414062 1.15625 -7.125 C 1.488281 -7.84375 1.941406 -8.382812 2.515625 -8.75 C 3.085938 -9.113281 3.738281 -9.296875 4.46875 -9.296875 C 5.6875 -9.296875 6.554688 -8.753906 7.078125 -7.671875 L 7.171875 -7.671875 L 7.171875 -12.234375 L 9.3125 -12.234375 L 9.3125 0 L 7.203125 0 L 7.203125 -1.453125 L 7.078125 -1.453125 C 6.535156 -0.367188 5.660156 0.171875 4.453125 0.171875 Z M 5.03125 -1.609375 C 5.488281 -1.609375 5.878906 -1.726562 6.203125 -1.96875 C 6.535156 -2.21875 6.785156 -2.566406 6.953125 -3.015625 C 7.128906 -3.472656 7.21875 -4 7.21875 -4.59375 C 7.21875 -5.1875 7.132812 -5.703125 6.96875 -6.140625 C 6.800781 -6.585938 6.550781 -6.929688 6.21875 -7.171875 C 5.894531 -7.421875 5.5 -7.546875 5.03125 -7.546875 C 4.570312 -7.546875 4.175781 -7.421875 3.84375 -7.171875 C 3.519531 -6.921875 3.273438 -6.570312 3.109375 -6.125 C 2.941406 -5.675781 2.859375 -5.164062 2.859375 -4.59375 C 2.859375 -4.007812 2.941406 -3.488281 3.109375 -3.03125 C 3.273438 -2.582031 3.519531 -2.234375 3.84375 -1.984375 C 4.175781 -1.734375 4.570312 -1.609375 5.03125 -1.609375 Z M 5.03125 -1.609375 "/></g></g><g transform="translate(315.088762, 191.40798)"><g><path d="M 1.03125 -9.1875 L 3.203125 -9.1875 L 3.203125 0 L 1.03125 0 Z M 2.140625 -10.484375 C 1.921875 -10.484375 1.710938 -10.535156 1.515625 -10.640625 C 1.316406 -10.742188 1.160156 -10.882812 1.046875 -11.0625 C 0.941406 -11.25 0.890625 -11.453125 0.890625 -11.671875 C 0.890625 -11.878906 0.941406 -12.070312 1.046875 -12.25 C 1.160156 -12.425781 1.316406 -12.566406 1.515625 -12.671875 C 1.710938 -12.773438 1.921875 -12.828125 2.140625 -12.828125 C 2.359375 -12.828125 2.5625 -12.773438 2.75 -12.671875 C 2.945312 -12.566406 3.101562 -12.425781 3.21875 -12.25 C 3.332031 -12.070312 3.390625 -11.878906 3.390625 -11.671875 C 3.390625 -11.453125 3.332031 -11.25 3.21875 -11.0625 C 3.101562 -10.882812 2.945312 -10.742188 2.75 -10.640625 C 2.5625 -10.535156 2.359375 -10.484375 2.140625 -10.484375 Z M 2.140625 -10.484375 "/></g></g><g transform="translate(319.314139, 191.40798)"><g><path d="M 5.03125 0.1875 C 4.15625 0.1875 3.382812 -0.0078125 2.71875 -0.40625 C 2.050781 -0.800781 1.535156 -1.351562 1.171875 -2.0625 C 0.816406 -2.78125 0.640625 -3.609375 0.640625 -4.546875 C 0.640625 -5.492188 0.816406 -6.320312 1.171875 -7.03125 C 1.535156 -7.75 2.050781 -8.304688 2.71875 -8.703125 C 3.382812 -9.097656 4.15625 -9.296875 5.03125 -9.296875 C 5.914062 -9.296875 6.691406 -9.097656 7.359375 -8.703125 C 8.023438 -8.304688 8.535156 -7.75 8.890625 -7.03125 C 9.253906 -6.320312 9.4375 -5.492188 9.4375 -4.546875 C 9.4375 -3.609375 9.253906 -2.78125 8.890625 -2.0625 C 8.535156 -1.34375 8.023438 -0.785156 7.359375 -0.390625 C 6.691406 -0.00390625 5.914062 0.1875 5.03125 0.1875 Z M 5.0625 -1.53125 C 5.53125 -1.53125 5.925781 -1.660156 6.25 -1.921875 C 6.582031 -2.191406 6.832031 -2.554688 7 -3.015625 C 7.164062 -3.472656 7.25 -3.988281 7.25 -4.5625 C 7.25 -5.132812 7.164062 -5.648438 7 -6.109375 C 6.832031 -6.566406 6.582031 -6.925781 6.25 -7.1875 C 5.925781 -7.457031 5.53125 -7.59375 5.0625 -7.59375 C 4.570312 -7.59375 4.160156 -7.457031 3.828125 -7.1875 C 3.492188 -6.925781 3.242188 -6.566406 3.078125 -6.109375 C 2.910156 -5.648438 2.828125 -5.132812 2.828125 -4.5625 C 2.828125 -3.988281 2.910156 -3.472656 3.078125 -3.015625 C 3.242188 -2.554688 3.492188 -2.191406 3.828125 -1.921875 C 4.160156 -1.660156 4.570312 -1.53125 5.0625 -1.53125 Z M 5.0625 -1.53125 "/></g></g><g transform="translate(329.387436, 191.40798)"><g/></g><g transform="translate(333.494502, 191.40798)"><g><path d="M 5.453125 0.171875 C 4.597656 0.171875 3.828125 0.0234375 3.140625 -0.265625 C 2.460938 -0.554688 1.925781 -0.96875 1.53125 -1.5 C 1.144531 -2.03125 0.945312 -2.632812 0.9375 -3.3125 L 3.140625 -3.3125 C 3.160156 -2.988281 3.273438 -2.703125 3.484375 -2.453125 C 3.691406 -2.210938 3.96875 -2.023438 4.3125 -1.890625 C 4.65625 -1.753906 5.035156 -1.6875 5.453125 -1.6875 C 5.898438 -1.6875 6.300781 -1.765625 6.65625 -1.921875 C 7.007812 -2.078125 7.285156 -2.289062 7.484375 -2.5625 C 7.679688 -2.84375 7.78125 -3.160156 7.78125 -3.515625 C 7.78125 -3.878906 7.675781 -4.203125 7.46875 -4.484375 C 7.269531 -4.773438 6.976562 -5 6.59375 -5.15625 C 6.207031 -5.320312 5.753906 -5.40625 5.234375 -5.40625 L 4.140625 -5.40625 L 4.140625 -7.09375 L 5.234375 -7.09375 C 5.671875 -7.09375 6.054688 -7.164062 6.390625 -7.3125 C 6.722656 -7.46875 6.984375 -7.679688 7.171875 -7.953125 C 7.359375 -8.234375 7.445312 -8.546875 7.4375 -8.890625 C 7.445312 -9.234375 7.367188 -9.535156 7.203125 -9.796875 C 7.046875 -10.054688 6.816406 -10.257812 6.515625 -10.40625 C 6.210938 -10.550781 5.867188 -10.625 5.484375 -10.625 C 5.097656 -10.625 4.738281 -10.550781 4.40625 -10.40625 C 4.070312 -10.269531 3.804688 -10.070312 3.609375 -9.8125 C 3.410156 -9.5625 3.304688 -9.269531 3.296875 -8.9375 L 1.1875 -8.9375 C 1.195312 -9.613281 1.390625 -10.210938 1.765625 -10.734375 C 2.148438 -11.265625 2.664062 -11.675781 3.3125 -11.96875 C 3.96875 -12.257812 4.695312 -12.40625 5.5 -12.40625 C 6.300781 -12.40625 7.007812 -12.253906 7.625 -11.953125 C 8.25 -11.648438 8.726562 -11.238281 9.0625 -10.71875 C 9.40625 -10.207031 9.570312 -9.640625 9.5625 -9.015625 C 9.570312 -8.554688 9.484375 -8.144531 9.296875 -7.78125 C 9.109375 -7.414062 8.84375 -7.113281 8.5 -6.875 C 8.164062 -6.632812 7.78125 -6.46875 7.34375 -6.375 L 7.34375 -6.265625 C 7.90625 -6.191406 8.390625 -6.023438 8.796875 -5.765625 C 9.203125 -5.515625 9.507812 -5.1875 9.71875 -4.78125 C 9.925781 -4.375 10.03125 -3.910156 10.03125 -3.390625 C 10.03125 -2.722656 9.832031 -2.113281 9.4375 -1.5625 C 9.050781 -1.019531 8.507812 -0.59375 7.8125 -0.28125 C 7.113281 0.0195312 6.328125 0.171875 5.453125 0.171875 Z M 5.453125 0.171875 "/></g></g></g><g clip-path="url(#3892acb217)"><path fill="#295f98" d="M 413.167969 142.171875 L 598.050781 142.171875 L 598.050781 228.382812 L 413.167969 228.382812 Z M 413.167969 142.171875 " fill-opacity="1" fill-rule="nonzero"/></g><g fill="#ffffff" fill-opacity="1"><g transform="translate(471.973552, 191.40798)"><g><path d="M 7.796875 -8.875 C 7.742188 -9.394531 7.507812 -9.800781 7.09375 -10.09375 C 6.675781 -10.382812 6.140625 -10.53125 5.484375 -10.53125 C 5.023438 -10.53125 4.625 -10.460938 4.28125 -10.328125 C 3.945312 -10.191406 3.691406 -10.003906 3.515625 -9.765625 C 3.335938 -9.523438 3.25 -9.25 3.25 -8.9375 C 3.25 -8.46875 3.441406 -8.101562 3.828125 -7.84375 C 4.210938 -7.59375 4.71875 -7.394531 5.34375 -7.25 L 6.5 -6.953125 C 7.550781 -6.703125 8.410156 -6.296875 9.078125 -5.734375 C 9.742188 -5.179688 10.078125 -4.414062 10.078125 -3.4375 C 10.078125 -2.71875 9.894531 -2.082031 9.53125 -1.53125 C 9.164062 -0.988281 8.632812 -0.566406 7.9375 -0.265625 C 7.238281 0.0351562 6.40625 0.1875 5.4375 0.1875 C 4.488281 0.1875 3.664062 0.0390625 2.96875 -0.25 C 2.269531 -0.550781 1.722656 -0.984375 1.328125 -1.546875 C 0.941406 -2.117188 0.726562 -2.800781 0.6875 -3.59375 L 2.859375 -3.59375 C 2.910156 -2.976562 3.171875 -2.503906 3.640625 -2.171875 C 4.109375 -1.847656 4.703125 -1.6875 5.421875 -1.6875 C 5.898438 -1.6875 6.328125 -1.757812 6.703125 -1.90625 C 7.078125 -2.050781 7.363281 -2.257812 7.5625 -2.53125 C 7.769531 -2.800781 7.875 -3.109375 7.875 -3.453125 C 7.875 -3.890625 7.6875 -4.234375 7.3125 -4.484375 C 6.945312 -4.742188 6.394531 -4.96875 5.65625 -5.15625 L 4.28125 -5.515625 C 2.101562 -6.078125 1.015625 -7.175781 1.015625 -8.8125 C 1.015625 -9.519531 1.207031 -10.144531 1.59375 -10.6875 C 1.988281 -11.226562 2.523438 -11.648438 3.203125 -11.953125 C 3.890625 -12.253906 4.660156 -12.40625 5.515625 -12.40625 C 6.367188 -12.40625 7.125 -12.253906 7.78125 -11.953125 C 8.445312 -11.648438 8.960938 -11.234375 9.328125 -10.703125 C 9.703125 -10.171875 9.894531 -9.5625 9.90625 -8.875 Z M 7.796875 -8.875 "/></g></g><g transform="translate(482.739811, 191.40798)"><g><path d="M 5.609375 -7.53125 L 3.796875 -7.53125 L 3.796875 -2.75 C 3.796875 -2.34375 3.878906 -2.0625 4.046875 -1.90625 C 4.222656 -1.757812 4.46875 -1.6875 4.78125 -1.6875 C 5.050781 -1.6875 5.367188 -1.695312 5.734375 -1.71875 L 5.734375 0.03125 C 5.453125 0.09375 5.046875 0.125 4.515625 0.125 C 3.953125 0.125 3.457031 0.03125 3.03125 -0.15625 C 2.601562 -0.34375 2.265625 -0.625 2.015625 -1 C 1.765625 -1.375 1.644531 -1.84375 1.65625 -2.40625 L 1.65625 -7.53125 L 0.34375 -7.53125 L 0.34375 -9.1875 L 1.65625 -9.1875 L 1.65625 -11.375 L 3.796875 -11.375 L 3.796875 -9.1875 L 5.609375 -9.1875 Z M 5.609375 -7.53125 "/></g></g><g transform="translate(488.976467, 191.40798)"><g><path d="M 6.890625 -9.1875 L 9.046875 -9.1875 L 9.046875 0 L 6.96875 0 L 6.96875 -1.625 L 6.859375 -1.625 C 6.640625 -1.09375 6.289062 -0.664062 5.8125 -0.34375 C 5.34375 -0.03125 4.773438 0.125 4.109375 0.125 C 3.503906 0.125 2.96875 -0.0078125 2.5 -0.28125 C 2.039062 -0.550781 1.679688 -0.945312 1.421875 -1.46875 C 1.171875 -1.988281 1.039062 -2.609375 1.03125 -3.328125 L 1.03125 -9.1875 L 3.203125 -9.1875 L 3.203125 -3.671875 C 3.203125 -3.285156 3.269531 -2.945312 3.40625 -2.65625 C 3.550781 -2.363281 3.753906 -2.140625 4.015625 -1.984375 C 4.273438 -1.835938 4.582031 -1.765625 4.9375 -1.765625 C 5.257812 -1.765625 5.570312 -1.84375 5.875 -2 C 6.175781 -2.15625 6.421875 -2.390625 6.609375 -2.703125 C 6.796875 -3.023438 6.890625 -3.410156 6.890625 -3.859375 Z M 6.890625 -9.1875 "/></g></g><g transform="translate(499.049764, 191.40798)"><g><path d="M 4.453125 0.171875 C 3.722656 0.171875 3.070312 -0.015625 2.5 -0.390625 C 1.925781 -0.765625 1.472656 -1.3125 1.140625 -2.03125 C 0.816406 -2.75 0.65625 -3.597656 0.65625 -4.578125 C 0.65625 -5.566406 0.820312 -6.414062 1.15625 -7.125 C 1.488281 -7.84375 1.941406 -8.382812 2.515625 -8.75 C 3.085938 -9.113281 3.738281 -9.296875 4.46875 -9.296875 C 5.6875 -9.296875 6.554688 -8.753906 7.078125 -7.671875 L 7.171875 -7.671875 L 7.171875 -12.234375 L 9.3125 -12.234375 L 9.3125 0 L 7.203125 0 L 7.203125 -1.453125 L 7.078125 -1.453125 C 6.535156 -0.367188 5.660156 0.171875 4.453125 0.171875 Z M 5.03125 -1.609375 C 5.488281 -1.609375 5.878906 -1.726562 6.203125 -1.96875 C 6.535156 -2.21875 6.785156 -2.566406 6.953125 -3.015625 C 7.128906 -3.472656 7.21875 -4 7.21875 -4.59375 C 7.21875 -5.1875 7.132812 -5.703125 6.96875 -6.140625 C 6.800781 -6.585938 6.550781 -6.929688 6.21875 -7.171875 C 5.894531 -7.421875 5.5 -7.546875 5.03125 -7.546875 C 4.570312 -7.546875 4.175781 -7.421875 3.84375 -7.171875 C 3.519531 -6.921875 3.273438 -6.570312 3.109375 -6.125 C 2.941406 -5.675781 2.859375 -5.164062 2.859375 -4.59375 C 2.859375 -4.007812 2.941406 -3.488281 3.109375 -3.03125 C 3.273438 -2.582031 3.519531 -2.234375 3.84375 -1.984375 C 4.175781 -1.734375 4.570312 -1.609375 5.03125 -1.609375 Z M 5.03125 -1.609375 "/></g></g><g transform="translate(509.511796, 191.40798)"><g><path d="M 1.03125 -9.1875 L 3.203125 -9.1875 L 3.203125 0 L 1.03125 0 Z M 2.140625 -10.484375 C 1.921875 -10.484375 1.710938 -10.535156 1.515625 -10.640625 C 1.316406 -10.742188 1.160156 -10.882812 1.046875 -11.0625 C 0.941406 -11.25 0.890625 -11.453125 0.890625 -11.671875 C 0.890625 -11.878906 0.941406 -12.070312 1.046875 -12.25 C 1.160156 -12.425781 1.316406 -12.566406 1.515625 -12.671875 C 1.710938 -12.773438 1.921875 -12.828125 2.140625 -12.828125 C 2.359375 -12.828125 2.5625 -12.773438 2.75 -12.671875 C 2.945312 -12.566406 3.101562 -12.425781 3.21875 -12.25 C 3.332031 -12.070312 3.390625 -11.878906 3.390625 -11.671875 C 3.390625 -11.453125 3.332031 -11.25 3.21875 -11.0625 C 3.101562 -10.882812 2.945312 -10.742188 2.75 -10.640625 C 2.5625 -10.535156 2.359375 -10.484375 2.140625 -10.484375 Z M 2.140625 -10.484375 "/></g></g><g transform="translate(513.737172, 191.40798)"><g><path d="M 5.03125 0.1875 C 4.15625 0.1875 3.382812 -0.0078125 2.71875 -0.40625 C 2.050781 -0.800781 1.535156 -1.351562 1.171875 -2.0625 C 0.816406 -2.78125 0.640625 -3.609375 0.640625 -4.546875 C 0.640625 -5.492188 0.816406 -6.320312 1.171875 -7.03125 C 1.535156 -7.75 2.050781 -8.304688 2.71875 -8.703125 C 3.382812 -9.097656 4.15625 -9.296875 5.03125 -9.296875 C 5.914062 -9.296875 6.691406 -9.097656 7.359375 -8.703125 C 8.023438 -8.304688 8.535156 -7.75 8.890625 -7.03125 C 9.253906 -6.320312 9.4375 -5.492188 9.4375 -4.546875 C 9.4375 -3.609375 9.253906 -2.78125 8.890625 -2.0625 C 8.535156 -1.34375 8.023438 -0.785156 7.359375 -0.390625 C 6.691406 -0.00390625 5.914062 0.1875 5.03125 0.1875 Z M 5.0625 -1.53125 C 5.53125 -1.53125 5.925781 -1.660156 6.25 -1.921875 C 6.582031 -2.191406 6.832031 -2.554688 7 -3.015625 C 7.164062 -3.472656 7.25 -3.988281 7.25 -4.5625 C 7.25 -5.132812 7.164062 -5.648438 7 -6.109375 C 6.832031 -6.566406 6.582031 -6.925781 6.25 -7.1875 C 5.925781 -7.457031 5.53125 -7.59375 5.0625 -7.59375 C 4.570312 -7.59375 4.160156 -7.457031 3.828125 -7.1875 C 3.492188 -6.925781 3.242188 -6.566406 3.078125 -6.109375 C 2.910156 -5.648438 2.828125 -5.132812 2.828125 -4.5625 C 2.828125 -3.988281 2.910156 -3.472656 3.078125 -3.015625 C 3.242188 -2.554688 3.492188 -2.191406 3.828125 -1.921875 C 4.160156 -1.660156 4.570312 -1.53125 5.0625 -1.53125 Z M 5.0625 -1.53125 "/></g></g><g transform="translate(523.810469, 191.40798)"><g/></g><g transform="translate(527.917535, 191.40798)"><g><path d="M 0.796875 -4.046875 L 6.09375 -12.234375 L 8.828125 -12.234375 L 8.828125 -4.09375 L 10.4375 -4.09375 L 10.4375 -2.28125 L 8.828125 -2.28125 L 8.828125 0 L 6.734375 0 L 6.734375 -2.28125 L 0.796875 -2.28125 Z M 6.765625 -4.09375 L 6.765625 -9.734375 L 6.625 -9.734375 L 3.046875 -4.171875 L 3.046875 -4.09375 Z M 6.765625 -4.09375 "/></g></g></g></svg>